<?xml version="1.0" encoding="UTF-8"?>
<svg id="Calque_2" data-name="Calque 2" xmlns="http://www.w3.org/2000/svg" viewBox="0 0 97.67 97.67">
  <defs>
    <style>
      .cls-1 {
        fill: #009c1a;
      }

      .cls-1, .cls-2 {
        stroke-width: 0px;
      }

      .cls-2 {
        fill: #fff;
      }
    </style>
  </defs>
  <g id="Calque_1-2" data-name="Calque 1">
    <g>
      <circle class="cls-1" cx="48.83" cy="48.83" r="48.83"/>
      <g>
        <path class="cls-2" d="M61.8,26.16h0c-3.53-.58-6.88,1.82-7.48,5.35-.28,1.71.12,3.43,1.12,4.84,1.01,1.41,2.5,2.35,4.21,2.63.36.06.72.09,1.08.09,1.34,0,2.64-.42,3.76-1.21,1.41-1.01,2.35-2.51,2.64-4.22.29-1.71-.11-3.43-1.12-4.84-1.01-1.41-2.51-2.35-4.22-2.64ZM57.4,28.36c-.12.1-.24.2-.34.3.11-.1.22-.2.34-.3ZM59.84,37.88c-2.93-.49-4.91-3.26-4.42-6.19.2-1.19.8-2.22,1.61-3-.79.79-.84,1.4-.84,1.4-.02.14-.02.24,0,.33.01.07.04.13.09.18-.02.06-.1.19-.11.26-.01.05,0,.09.01.14-.02.15.15.37.32.51.06.05.13.09.18.11-.02.11.17.24.16.26-.26.25-.41.65-.44.88-.03.28.41,1.27.4,1.44-.01.17.04.92.04.92.03.24.17.85.26.99.09.15.18.23.3.25-.03-.07-.18-.37-.17-.65,0-.27.31-.48.46-.61.11-.09.9-.65.98-.72.32-.26.48-.52.52-.68.05-.16-.6-.47-.65-.53-.04-.06-.06-.38-.12-.47-.06-.09-.26-.19-.44-.35-.13-.39-.22-.44-.29-.47-.07-.02-.14.15-.17.15-.02-.01-.21-.17-.21.04-.08-.12-.18-.2-.32-.32-.01.01-.05.04-.06.05.01-.11.02-.28-.03-.39,0-.02-.01-.04-.02-.06-.02-.04-.23-.15-.23-.15,0,0,.1-.07.13-.08.01,0,.06-.01.07-.01h.24c.01.12.04.2.11.25l.3-.33c.04-.14.08-.29.13-.4.04-.09.22-.39.44-.72.27-.15.62-.3,1.08-.38.56-.11.84-.14.99-.27.11-.09.15-.24.19-.52.03-.04.08-.09.12-.15.08-.08.16-.18.24-.25.08-.07.16-.13.22-.14,0,.02-.01.03.01.03,0,.01.02.01.05,0-.02.02-.05.04-.08.06-.07.03-.23.12-.15.24.07.12.45.15,1.05-.13.52-.25.49-.54.41-.6-.01-.01-.03-.01-.04-.01-.01-.03-.07-.04-.14-.04s-.16.03-.28,0c-.12-.05-.31-.15-.41-.16s-.27-.06-.38.02c-.11.09-.11.18-.15.25-.04.06-.05.15-.15.2-.05.02-.12.05-.18.09.07-.11.13-.18.11-.26.02-.01.04-.03.06-.05s.01-.06.01-.06c0,0-.07-.02-.11-.01-.01.01-.02.01-.04.02v-.13s.01.01,0-.06c0-.07-.74-.15-.91-.15h-.21c-.13,0-.32.03-.56.09.6-.23,1.25-.36,1.91-.36.29,0,.58.02.88.07.98.17,1.85.59,2.56,1.19-.07-.02-.14-.04-.21-.04-.16,0-.29.07-.38.15-.22-.17-.48-.22-.67-.21-.18.01-.41.25-.44.44-.23.01-.32.12-.33.24-.02.06-.04.16-.04.26.01.15.06.3.24.29.29-.01.35-.03.42-.25.03-.07.05-.14.07-.2.03-.12.04-.21.08-.23.04-.04.09-.04.16.01.21.18-.08.45-.08.5,0,.05-.17.13-.38.19-.05.02-.14.06-.24.11-.07-.08-.17-.15-.29-.17-.18-.03-.32,0-.43.09-.03.03-.18.11-.2.16,0,.01.06.22,0,.31-.05.07-.25.03-.26.12-.02.28.19.58.2.59-.04.01-.14.04-.18.06-.31.19-.78.58-.99,1.02-.21.44-.05.98.07,1.17.12.19.75.43.89.57.01.01.03.03.04.04.09.11.13.24.15.33v.04c.01.05.03.22.03.39.01.14.01.29,0,.35h0c-.02.12-.36.41-.39.48-.03.04-.02.13.01.19,0,.02.01.04.02.05.03.06.12.74.12.79.01.05.05.15.25.15.48.06.94-.46,1.06-.69.21-.04.29-.14.33-.19s.13-.65.21-.84c.09-.18.67-.64.9-.88.23-.25.21-.56.21-.56l-.37.11s-.22-.48-.15-.47c0,.1.23.33.23.33,0,0,.15-.06.37-.14-.03-.08-.03-.17-.02-.23.02-.05.37-.13.37-.13,0,0-.01.06-.01.16.01.09.18.29.22.35.04.06.11.44.23.61.04-.38.21-.83.37-1.14.17.08.37.73.37.94s-.13.52-.14.58c-.01.07.09.15.13.16.1-.2.17-.39.23-.59-.65,2.72-3.32,4.52-6.12,4.06ZM62.54,30.6s-.03-.07-.05-.09c-.03-.04-.15-.14-.22-.19.12.02.25.08.33.22.14.26.28.47.28.47,0,0,.08.13.16.15.07.02.33-.07.49-.1.04.04.06.08.06.11,0,.02-.01.06-.02.09-.02.06-.1.16-.17.26-.07.09-.05.21-.11.24-.07.02-.15-.08-.25-.14-.11-.08-.24-.17-.31-.21-.14-.07-.18-.01-.18-.01,0,0-.09.07-.18.1-.04-.1-.33-.18-.42-.24-.09-.05-.34-.43-.48-.46.11-.04.26-.08.28-.14.05-.11.12-.27.25-.33.02.04.05.1.08.12.02,0,.31.25.35.3.04.05.15-.07.11-.15Z"/>
        <path class="cls-2" d="M72.27,19.25c-.28-.23-.63-.32-.97-.28-.3.03-.59.18-.81.42-.02.02-.05.03-.07.06h0c-.45.57-.36,1.39.21,1.85h0c.72.58,1.42,1.18,2.09,1.81,10,9.39,13.53,23.75,9.11,36.75l-.98,2.47c-2.16,4.99-5.48,9.44-9.67,12.95l-.89.71c-.39-1.98-1.1-5.56-1.32-6.6-.47-2.2-1.82-3.66-3.92-4.42-.77-.27-1.56-.49-2.32-.76-.27-.1-.68-.31-.68-.45.02-.27.23-.6.46-.77,1.53-1.14,2.46-2.63,2.62-4.53.08-1.03.08-2.07,0-3.09-.22-2.74-2.08-4.91-4.72-5.51-.74-.17-1.5-.15-2.33-.24.47-2.33.95-4.66,1.43-7.04.2.02.34.03.47.06,2.59.52,5.17,1.05,7.76,1.57,1.5.3,2.74-.46,3.11-1.95.2-.77.35-1.54.49-2.33.13-.69-.23-1.24-.84-1.37-.6-.12-1.12.26-1.28.97-.15.65-.3,1.31-.41,1.98-.08.52-.31.66-.84.55-4.45-.92-8.89-1.8-13.33-2.72-.28-.06-.61-.29-.79-.52-.95-1.29-2.19-2.14-3.76-2.48-.18-.04-.35-.11-.57-.17.9-4.43,1.8-8.83,2.68-13.22.11-.53.47-.47.83-.4,6.04,1.23,12.08,2.47,18.12,3.68.56.12.7.34.59.89-.49,2.32-.95,4.66-1.42,6.99-.17.84.09,1.4.74,1.54.7.15,1.18-.22,1.36-1.11.46-2.21.91-4.43,1.35-6.64-1.23-1.51-2.62-2.92-4.15-4.19-.32-.06-.63-.12-.95-.19-1.68-.33-3.37-.68-5.05-1.03.12-1.01-.1-1.49-.69-1.67-.64-.19-.94.04-1.59,1.21-2.44-.49-4.9-.99-7.34-1.48-.18-.04-.36-.07-.54-.11-1.56-.32-2.68.22-3.2,1.53-.09.22-.17.47-.22.73-.87,4.35-1.76,8.69-2.63,13.05-.08.43-.26.67-.71.84-2.13.83-3.48,2.37-3.88,4.63-.16.84-.09,1.72-.14,2.58-.14,2.48.79,4.44,2.86,5.86.16.1.3.39.27.57-.02.16-.27.35-.46.41-.56.23-1.15.35-1.69.59-.49.22-.8.15-1.21-.19-1.91-1.57-4.7-1.96-6.71-.55-.83.57-1.96,1.44-2.72,2.81-.72,1.64-.58,3.31-.52,4.96.08,1.99,1.04,3.54,2.64,4.74.23.16.41.49.46.76,0,.12-.38.34-.62.43-.67.25-1.36.47-2.05.68-2.38.71-3.8,2.31-4.32,4.73-.02.08-1.16,4.56-1.57,6.17l-.55-.49s0,0,0,0c-.02-.02-.05-.05-.06-.06-4.17-3.5-7.46-7.92-9.61-12.89l-.97-2.48c-1.22-3.6-1.87-7.41-1.87-11.34,0-16.8,11.72-30.98,28.05-34.19.3,1.13.87,2.16,1.64,2.99,1.29,1.39,3.13,2.27,5.17,2.27,3.88,0,7.04-3.16,7.04-7.04s-3.16-7.04-7.04-7.04c-1.61,0-3.1.55-4.28,1.46-.3.23-.57.48-.83.75,0,0,0,0-.01.01-1,1.06-1.67,2.43-1.85,3.95-4.76.9-9.16,2.69-13.06,5.16-.31.2-.62.4-.92.6-.64.43-1.26.88-1.87,1.35-.57.44-1.13.89-1.67,1.36-.75.65-1.48,1.33-2.18,2.04,0,0-.02.02-.03.03-6.7,6.82-10.77,16.15-10.77,26.3s3.95,19.47,10.97,26.5c.47.47.95.93,1.45,1.37l2.01,1.69c.58.45,1.38.35,1.84-.23.04-.05.31-.32.51-.54.14-.15.25-.27.27-.31.31-1.61,2.04-5.32,2.34-6.94.22-1.19.79-2.2,1.91-2.71.98-.47,2.04-.76,3.06-1.12,1.59,2.88,4.06,2.87,5.88.04.67.21,1.35.45,2.03.65,1.74.49,2.67,1.65,2.98,3.41.31,1.72,1.22,5.9,1.59,7.8-3.58.33-6.39,3.35-6.39,7.01,0,1.94.79,3.7,2.07,4.97,1.27,1.28,3.03,2.07,4.97,2.07,3.81,0,6.92-3.04,7.04-6.83,8.78-1.67,16.71-6.47,22.26-13.43,2.35-3,4.18-6.05,5.59-9.65,5.98-15.22,1.48-32.65-11.45-43.01ZM53.25,12.54c0,1.22-.49,2.32-1.29,3.12s-1.91,1.29-3.12,1.29c-2.43,0-4.41-1.98-4.41-4.41s1.98-4.42,4.41-4.42c1.22,0,2.32.5,3.12,1.3.8.8,1.29,1.9,1.29,3.12ZM63.33,66.68c2.31.51,3.49,1.94,3.78,4.29.15,1.28.42,2.55.69,3.82l.49,2.7c-.56.37-1.13.73-1.71,1.07-2.96,1.74-6.22,3.06-9.7,3.88-.47.11-.94.22-1.42.31-.37-1.02-.96-1.93-1.72-2.67-1.1-1.06-2.54-1.76-4.14-1.93.4-2.1,1.17-6.25,1.47-7.89.22-1.14.63-2.19,1.67-2.74,1.07-.55,2.23-.9,3.35-1.34,1.49,2.92,4.02,2.89,5.88.08.45.14.91.31,1.37.42ZM44.42,85.13c0-1.47.73-2.76,1.83-3.56.73-.53,1.61-.85,2.58-.85,2.44,0,4.42,1.98,4.42,4.41s-1.98,4.41-4.42,4.41c-1.22,0-2.32-.5-3.12-1.29s-1.29-1.9-1.29-3.12ZM58.2,64.08h1.64c0,.46.02.89-.01,1.3-.03.5-.34.89-.82.78-.31-.07-.67-.43-.78-.74-.14-.38-.03-.85-.03-1.34ZM59.33,51.85c2.05.22,3.54,1.75,3.66,3.79.04.84.05,1.69,0,2.52-.12,2.1-1.93,3.77-4,3.76-2.1-.02-3.84-1.7-3.93-3.81-.03-.41-.01-.82-.01-1.23h-.06c.06-.69.03-1.41.2-2.07.45-1.88,2.28-3.15,4.14-2.96ZM54.96,43.76c-.04-.66,0-1.34,0-2.14.84.18,1.61.33,2.43.5-.52,2.54-1.01,5.02-1.53,7.49-.07.39-.11.86-.35,1.13-.41.47-.89.91-1.66.46-.48-.29-1.08-.36-1.62-.56-.16-.07-.39-.26-.4-.4-.01-.19.11-.47.26-.58,2.09-1.42,3.01-3.4,2.87-5.9ZM44.85,44.5c-.01-.74-.01-1.49.01-2.23.04-2.2,1.79-3.9,3.97-3.9,2.18.01,3.91,1.71,3.96,3.92.01.39,0,.77,0,1.15.03.01.04.01.07.01-.07.69-.05,1.4-.22,2.07-.47,1.83-2.39,3.14-4.19,2.92-2.03-.24-3.57-1.93-3.6-3.94ZM48.02,50.63h1.61c-.08.67.3,1.41-.37,1.92-.19.15-.66.15-.86.02-.7-.49-.3-1.24-.38-1.94ZM39.41,65.44c-.11.32-.53.71-.8.7s-.66-.42-.77-.73c-.14-.38-.04-.84-.04-1.31h1.64c0,.46.1.95-.03,1.34ZM38.42,61.91c-1.79-.08-3.43-1.45-3.67-3.27-.16-1.17-.15-2.41.02-3.58.28-1.96,2.14-3.35,4.06-3.21,2.05.14,3.62,1.67,3.75,3.68.03.46.05,1.38.07,1.38-.06.69-.03,1.4-.2,2.06-.46,1.81-2.18,3.02-4.03,2.94ZM44.85,65.05c-.9-.34-1.83-.59-2.73-.91-.18-.06-.46-.27-.46-.42,0-.2.14-.5.32-.62,1.94-1.38,2.89-3.23,2.78-5.6-.06-1.37-.17-2.75-.27-4.28.32-.1.85-.28,1.37-.44,1.86,2.81,4.38,2.83,5.87,0,.52.15,1.05.32,1.68.51-.68,1.49-.52,3.03-.53,4.56-.01,2.18.93,3.86,2.66,5.16.21.15.43.46.44.7.01.16-.36.38-.59.47-.65.25-1.31.46-1.97.65-2.46.74-3.96,2.34-4.44,4.88-.02.16-.08.32-.17.67-.1-.48-.15-.79-.22-1.09-.53-2.05-1.75-3.49-3.74-4.24Z"/>
      </g>
    </g>
  </g>
</svg>