<?xml version="1.0" encoding="UTF-8"?>
<svg id="Calque_2" data-name="Calque 2" xmlns="http://www.w3.org/2000/svg" viewBox="0 0 74.99 86.67">
  <defs>
    <style>
      .cls-1 {
        fill: #009C1A;
        fill-rule: evenodd;
        stroke-width: 0px;
      }
    </style>
  </defs>
  <g id="Calque_1-2" data-name="Calque 1">
    <g>
      <path class="cls-1" d="M33.73,67.26c.12.02.24.03.4.07.03,0,.07.01.03-.02.42.44.96.66,1.61.66h.02c1.25,0,2.5,0,3.75,0h.02c.63,0,1.16-.21,1.57-.62.58.07,1.06-.14,1.5-.38l10.94-6.15c1.72-.97,3.43-1.93,5.15-2.89.76-.42,1.15-1,1.16-1.72.02-1.19.02-2.37,0-3.56,0-.64-.48-1.11-1.12-1.11-.31-.02-.6.1-.8.3-.16.15-.35.44-.35.92v.14c-.01.94-.02,1.88,0,2.82,0,.17,0,.21-.2.32-3.28,1.83-6.56,3.68-9.84,5.53l-2.39,1.35c-1.17.66-2.35,1.32-3.52,1.97v-4.85c0-7,0-14-.01-21,0-.33.06-.43.34-.59,4.07-2.27,8.14-4.56,12.21-6.85l3.4-1.92v18.5c0,.18,0,.36.03.54.08.58.51.97,1.09.98h.02c.59,0,1.03-.39,1.12-.99.02-.15.02-.31.02-.54v-18.63c0-.16,0-.33-.02-.49-.06-.68-.43-1.25-1.01-1.58-.58-.32-1.26-.34-1.87-.05-.04.02-.08.04-.12.06l-.31-.3c-.47-.45-.93-.89-1.38-1.34-.42-.43-.91-.57-1.46-.4l-.52.15c-.28.08-.56.16-.83.25-.41.13-.82.27-1.24.41h0c0-.53,0-1.04,0-1.55.02-.58-.2-1.03-.63-1.33l-.13-.09h-.7l-.1.05c-.38.19-.76.37-1.15.55-.84.4-1.71.81-2.54,1.29-3.76,2.2-6.52,5.2-8.22,8.97-.19-.4-.37-.8-.58-1.18-2.07-3.85-5.21-6.75-9.62-8.86-.39-.19-.79-.36-1.18-.54l-.53-.23-.78-.04-.12.08c-.67.44-.65,1.15-.65,1.39.01.5,0,1,0,1.51l-.28-.09c-.71-.22-1.41-.43-2.09-.66-.73-.25-1.31-.09-1.85.5-.39.43-.82.83-1.22,1.2l-.28.26c-.06-.02-.12-.03-.17-.05-.35-.1-.71-.2-1.1-.18-1.08.07-1.78.95-1.78,2.24v26.55c0,.82.38,1.45,1.1,1.86l4.95,2.78c3.77,2.12,7.55,4.25,11.33,6.36.3.17.63.21.92.25ZM48.84,26.13c0,.34,0,.67-.02.99-.02.02-.05.04-.07.05-2.36,1.05-4.41,2.23-6.23,3.59,1.65-1.87,3.74-3.4,6.31-4.63ZM40.78,35.41c2.26-2.49,5.06-4.45,8.58-5.98.95-.42,1.95-.77,2.92-1.11.51-.18,1.01-.36,1.52-.55l.13.03c.27.28.56.55.87.82l-5.63,3.17c-2.63,1.48-5.27,2.95-7.89,4.46-.55.32-1.07.54-1.66.58.39-.5.76-.97,1.16-1.42ZM35.95,39.1h3.41v1.82h-3.41v-1.82ZM35.95,42.66h3.41v1.82h-3.41v-1.82ZM39.35,46.12v12.91h-3.39v-12.91h3.39ZM35.95,60.84h3.41v1.82h-3.41v-1.82ZM35.95,64.4h3.41v1.82h-3.41v-1.82ZM21.44,27.76s.05,0,.07.01c1.99.57,3.95,1.35,5.88,2.33.12.06.25.13.38.18.61.26,1.23.03,1.5-.55.27-.57.05-1.2-.52-1.49-.75-.38-1.52-.75-2.3-1.11,0-.35,0-.7,0-1.05,1.76.65,4.37,2.65,6.24,4.62-.06-.04-.12-.08-.18-.13-.34-.24-.67-.34-.99-.29-.19.03-.47.14-.71.48-.38.54-.26,1.14.32,1.63.24.2.49.4.73.59.62.5,1.27,1.02,1.83,1.59.59.59,1.13,1.26,1.66,1.92.09.11.17.21.26.32-.48-.03-.88-.16-1.27-.38-3.42-1.96-6.86-3.89-10.3-5.81l-3.55-1.99c.31-.3.62-.59.93-.87ZM17.21,29.54l.2-.05s.04.02.07.04h.01s-.29,0-.29,0ZM17.9,56.03c-.19-.11-.2-.14-.2-.33,0-7.27,0-14.53,0-21.8v-4.24l4.69,2.64c3.69,2.07,7.37,4.15,11.06,6.21.17.1.19.13.19.33,0,3.42,0,6.83,0,10.25v15.78s-2.85-1.6-2.85-1.6c-4.3-2.42-8.6-4.84-12.9-7.25Z"/>
      <path class="cls-1" d="M43.59,45.69c0,.7.35,1.01.56,1.13.11.07.29.14.54.14.2,0,.44-.05.72-.21.45-.25.9-.5,1.34-.76l2.52-1.44c2.22-1.27,3.34-1.98,5.56-3.25.36-.2.84-.56.83-1.3,0-.67,0-1.34,0-2.01,0-.61,0-1.21,0-1.82,0-.5-.21-.9-.57-1.11-.36-.21-.81-.19-1.24.06-.58.32-1.15.65-1.72.98l-1.65,1.02c-2.39,1.37-3.72,2.13-6.12,3.49-.54.31-.79.75-.77,1.34.02.42.01.85,0,1.27v1.14c0,.44,0,.88,0,1.32ZM45.88,42.37c3.22-1.84,4.27-2.51,7.49-4.35,0,.39,0,.77.02,1.16.02.26-.02.35-.32.52-2.34,1.31-3.57,2.1-5.91,3.43l-1.29.74c0-.51,0-1.01,0-1.5Z"/>
      <path class="cls-1" d="M37.65,55.95h.01c.38,0,.66-.24.73-.62.02-.12.03-.25.03-.38v-1.9s0-2.88,0-2.88c0-.1,0-.2-.02-.3-.06-.42-.33-.68-.77-.67-.39,0-.68.25-.74.65-.02.09-.02.19-.02.29v4.85c0,.11,0,.22.02.32.07.39.36.63.75.63Z"/>
      <path class="cls-1" d="M60.93,13.75c-.57-.45-1.39-.36-1.85.2-.45.57-.36,1.39.21,1.85,11.58,9.28,15.91,24.69,11.2,38.56l-.98,2.47c-2.16,4.99-5.48,9.44-9.67,12.95l-.95.76-1.19.95c-.11.08-.22.15-.33.23h0c-3.87,2.68-8.35,4.59-13.24,5.53-.98-2.72-3.58-4.66-6.63-4.66-3.88,0-7.04,3.16-7.04,7.04s3.16,7.04,7.04,7.04,6.92-3.04,7.04-6.83c8.78-1.67,16.71-6.47,22.26-13.43,2.35-3,4.18-6.05,5.59-9.65,5.98-15.22,1.48-32.65-11.45-43.01ZM37.49,84.04c-2.43,0-4.41-1.98-4.41-4.41s1.98-4.41,4.41-4.41,4.42,1.98,4.42,4.41-1.98,4.41-4.42,4.41Z"/>
      <path class="cls-1" d="M15.15,69.78s-.05-.05-.07-.06c-4.17-3.5-7.46-7.92-9.61-12.89l-.97-2.48c-1.22-3.6-1.87-7.41-1.87-11.34C2.63,26.21,14.35,12.03,30.68,8.82c.79,3.02,3.55,5.26,6.81,5.26,3.88,0,7.04-3.16,7.04-7.04s-3.16-7.04-7.04-7.04c-3.59,0-6.56,2.7-6.98,6.17C12.87,9.5,0,24.98,0,43.01c0,10.79,4.49,20.71,12.42,27.87l2.01,1.69c.58.45,1.38.35,1.84-.23.04-.05.31-.32.51-.54.14-.15.25-.27.27-.31l-1.08-.97-.82-.74ZM37.49,2.62c2.44,0,4.42,1.98,4.42,4.42s-1.98,4.41-4.42,4.41-4.41-1.98-4.41-4.41,1.98-4.42,4.41-4.42Z"/>
    </g>
  </g>
</svg>