<?xml version="1.0" encoding="UTF-8"?>
<svg id="Calque_2" data-name="Calque 2" xmlns="http://www.w3.org/2000/svg" viewBox="0 0 97.67 97.67">
  <defs>
    <style>
      .cls-1 {
        fill: #fff;
        fill-rule: evenodd;
      }

      .cls-1, .cls-2 {
        stroke-width: 0px;
      }

      .cls-2 {
        fill: #009c1a;
      }
    </style>
  </defs>
  <g id="Calque_1-2" data-name="Calque 1">
    <g>
      <circle class="cls-2" cx="48.83" cy="48.83" r="48.83"/>
      <path class="cls-1" d="M72.27,19.25c-.57-.45-1.39-.36-1.85.2-.45.57-.36,1.39.2,1.85,11.58,9.28,15.91,24.69,11.21,38.56l-9.61-5.67c1.65-1.69,1.31-4.49-.71-5.72.92-1.93.26-4.27-1.6-5.41,1.08-1.97.42-4.44-1.5-5.61,1.51-2.78-.48-6.17-3.62-6.23l-2.93-6.99c-.88-2.09-3.1-3.18-5.29-2.59l-10.05,2.69c-4.15.91-6.93,2.28-8.89,4.38l-1.79-.48c-3.58-.96-6.56,2.86-4.79,6.09-1.93,1.18-2.58,3.63-1.5,5.61-1.95,1.19-2.57,3.65-1.5,5.61-2.7,1.64-2.66,5.49-.07,7.15l-12.13,7.16c-1.23-3.59-1.88-7.41-1.88-11.33,0-16.81,11.72-30.98,28.05-34.2.79,3.02,3.54,5.26,6.81,5.26,3.88,0,7.04-3.16,7.04-7.04s-3.16-7.04-7.04-7.04c-3.59,0-6.56,2.7-6.98,6.18-17.64,3.33-30.51,18.81-30.51,36.84,0,10.79,4.49,20.71,12.42,27.87l2.01,1.69c.58.44,1.38.35,1.84-.23.07-.08.11-.17.16-.26l15.78-11c1.79-1.25,3.65-1.76,5.83-1.59l2.76.21,16.91,11.79c-3.96,2.8-8.56,4.8-13.59,5.76-.98-2.71-3.58-4.66-6.62-4.66-3.88,0-7.04,3.16-7.04,7.04s3.16,7.04,7.04,7.04,6.92-3.04,7.03-6.83c8.78-1.67,16.71-6.48,22.26-13.44,2.35-3,4.18-6.05,5.6-9.65,5.97-15.22,1.48-32.65-11.45-43.01ZM48.83,8.12c2.43,0,4.41,1.98,4.41,4.41s-1.98,4.41-4.41,4.41-4.41-1.98-4.41-4.41,1.98-4.41,4.41-4.41ZM48.83,89.54c-2.43,0-4.41-1.98-4.41-4.41s1.98-4.41,4.41-4.41,4.41,1.98,4.41,4.41-1.98,4.41-4.41,4.41ZM57.24,24.17c.91-.24,1.83.21,2.19,1.07l2.73,6.5-2.56.69h0s-.11.04-.11.04l-1.88-3.98c-.27-.57-.91-.87-1.52-.71l-5.3,1.41c-.85.23-1.72-.28-1.95-1.12l-.41-1.54,8.81-2.36ZM33.21,31.89c.23-.85,1.1-1.35,1.95-1.12l4.89,1.31c1.34.36,1.62,2.19.38,2.91-.37.21-.8.27-1.2.16l-4.89-1.31c-.85-.23-1.35-1.1-1.12-1.95ZM32.45,36.54c.37-.21.8-.27,1.21-.16l4.89,1.31c1.34.36,1.62,2.19.38,2.91-.37.21-.8.27-1.21.16l-4.89-1.31c-1.34-.36-1.62-2.19-.38-2.91ZM30.95,42.15c.37-.21.8-.27,1.2-.16l4.89,1.31c.85.23,1.35,1.1,1.12,1.95-.22.84-1.11,1.35-1.95,1.12l-4.89-1.31c-1.35-.36-1.61-2.2-.38-2.91ZM29.44,47.76c.37-.21.8-.27,1.21-.16l4.89,1.31c.85.23,1.35,1.1,1.12,1.95-.23.85-1.1,1.35-1.95,1.12l-4.89-1.31c-1.34-.36-1.63-2.19-.38-2.91ZM49.57,62.37c-2.78-.21-5.24.46-7.53,2.06l-15.55,10.85s-.05-.04-.07-.06c-4.16-3.5-7.46-7.92-9.61-12.89l14.48-8.55,2.75.73c3.55.96,6.57-2.83,4.79-6.09,1.93-1.17,2.58-3.63,1.5-5.6,1.93-1.17,2.58-3.64,1.5-5.61,3.14-1.91,2.5-6.67-1.1-7.66l-.09-.03c1.3-.99,3.01-1.75,5.25-2.34l.42,1.57c.6,2.25,2.92,3.58,5.16,2.98l4.23-1.13,1.24,2.63-1.75.53c-1.44.44-1.11,2.57.38,2.57.13,0,.26-.02.38-.06l4.5-1.35,3.83-1.03c.85-.23,1.72.28,1.95,1.12.23.85-.28,1.72-1.12,1.95-.71.19-1.11.91-.93,1.61.19.7.91,1.12,1.61.93.85-.23,1.72.28,1.95,1.13.23.85-.28,1.72-1.12,1.95-.71.19-1.11.91-.93,1.61.19.7.91,1.12,1.61.93.84-.23,1.72.28,1.95,1.12.23.85-.28,1.72-1.12,1.95-.7.19-1.12.91-.93,1.61.19.7.91,1.12,1.61.93l.51-.14c.57-.15,1.15.18,1.3.75.15.57-.18,1.15-.75,1.3-.11.03-.21.07-.31.13l-17.26,9.82-2.72-.21ZM71.17,75.28l-16.13-11.24,14.61-8.31,11.19,6.61c-2.16,5-5.48,9.44-9.68,12.95Z"/>
    </g>
  </g>
</svg>