<?xml version="1.0" encoding="UTF-8"?>
<svg id="Calque_2" data-name="Calque 2" xmlns="http://www.w3.org/2000/svg" viewBox="0 0 271.79 65.2">
  <defs>
    <style>
      .cls-1 {
        fill: #009c1a;
      }

      .cls-1, .cls-2, .cls-3 {
        stroke-width: 0px;
      }

      .cls-2 {
        fill: #2151a3;
      }

      .cls-3 {
        fill: #4d4d4d;
      }
    </style>
  </defs>
  <g id="Calque_1-2" data-name="Calque 1">
    <g>
      <g>
        <path class="cls-2" d="M65.2,32.6c0,18-14.6,32.6-32.6,32.6S0,50.6,0,32.6,14.59,0,32.6,0s32.6,14.6,32.6,32.6Z"/>
        <g>
          <path class="cls-1" d="M36.59,2.85c-.08-.05-.17-.05-.25-.02-.09-.2-.44-.17-.86-.1-.42.06-.92.33-1.68.17-.76-.15-2.01-.54-2.61-.51-.61.02-1.65-.12-2.23.5-.59.63-.45,1.17-.63,1.61-.19.44-.14.94-.69,1.32-.28.2-.67.47-1.01.75.32-.76.59-1.18.42-1.65.13-.12.23-.26.3-.36.12-.16,0-.4,0-.4,0,0-.45-.05-.65.08-.05.03-.13.09-.23.16,0,0,0,0,0,0,0,0-.1-.41-.14-.77.08-.03.12.05-.05-.36-.07-.44-4.54-.17-5.55,0-.23.04-.66.08-1.26.2-2,.41-5.88,1.74-10.6,7.06-6.15,6.92-5.72,11.84-5.72,11.84.02.84.11,1.48.32,1.99.16.39.4.69.73.94-.05.41-.38,1.26-.38,1.71,0,.25.07.52.2.79.03.94,1.27,2.07,2.39,2.71.43.25.86.42,1.18.47,0,.68,1.27,1.29,1.21,1.37-1.31,1.77-1.79,4.26-1.72,5.7.07,1.67,3.66,7.11,3.78,8.17.12,1.01,1.15,5.43,1.15,5.43.39,1.39,1.83,4.87,2.5,5.59.73.78,1.32,1.21,2.05,1.21-.25-.38-1.44-2.05-1.67-3.68-.23-1.63,1.41-3.17,2.17-4.08.57-.68,4.67-4.78,5.07-5.24,1.64-1.89,2.34-3.55,2.44-4.56.1-1-4.06-2.19-4.39-2.52-.33-.33-.75-2.17-1.18-2.65-.43-.48-1.74-.91-2.95-1.69-1.18-2.17-1.74-2.39-2.19-2.47-.46-.07-.71,1.04-.86,1.04s-1.41-.81-1.23.48c-.58-.63-1.27-1-2.17-1.59-.09.08-.28.28-.33.32-.03-.63-.15-1.65-.56-2.25t0,0c-.06-.12-.12-.24-.17-.33-.15-.23-1.53-.72-1.53-.72,0,0,.53-.47.71-.56.04-.02.31-.15.38-.15.24,0,.87-.12,1.4-.24h0c.18.69.5,1.17.9,1.36l1.46-2.2c.12-.88.19-1.84.38-2.52.16-.61.95-2.54,1.9-4.75,1.44-1.13,3.4-2.34,6.03-3.31,3.23-1.19,4.85-1.67,5.62-2.55.6-.69.68-1.61.61-3.3.18-.29.39-.63.61-1,.36-.59.75-1.22,1.15-1.74.4-.52.79-.92,1.15-1.06,0,.13-.02.2.08.21.03,0,.16-.02.34-.07-.1.14-.28.29-.42.39-.38.27-1.26.98-.68,1.62.57.64,2.82.43,6.12-1.85,2.83-1.97,2.38-3.67,1.84-3.94Z"/>
          <path class="cls-1" d="M62.96,19.83c-1.94-5.5-8.24-11.43-9.7-12.68h0s0,0,0,0c-.6-.6-1.48-1.28-2.77-1.95-.14-.07-.27-.14-.4-.19,0,0,0,0,0,0-2.18-.95-3.72-.07-4.48.88-1.49-.75-3.1-.81-4.16-.55-1.06.25-2.22,1.89-2.22,3.03-1.36.29-1.75,1.08-1.7,1.79-.06.38-.08.99.03,1.56.16.9.63,1.71,1.67,1.49,1.72-.37,2.05-.54,2.3-1.88.08-.46.14-.89.17-1.27.07-.73.08-1.27.24-1.45.24-.26.51-.34.97-.08,1.46.81-.02,2.73,0,3.01.02.35-.83.93-2.02,1.54-.3.15-.77.47-1.32.88-.49-.44-1.17-.72-1.93-.72-1.1,0-1.9.29-2.42.95-.18.22-.97.82-1.08,1.13-.05.13.61,1.24.33,1.84-.24.5-1.43.43-1.39,1.01.11,1.66,1.68,3.21,1.76,3.27-.26.11-.79.37-1.01.57-1.66,1.42-4.07,4.22-4.87,7.04-.81,2.83.64,5.85,1.54,6.86.91,1.01,4.91,1.81,5.86,2.48.11.08.21.16.3.25.63.56.97,1.26,1.17,1.77.03.08.07.16.09.24.11.3.35,1.29.56,2.28.19.87.34,1.74.34,2.11v.05c-.03.7-1.75,2.75-1.88,3.16-.11.32.06.81.26,1.16.06.1.12.18.17.25.26.34,1.44,4.27,1.51,4.57s.44.84,1.62.67c2.92-.16,5.14-3.66,5.61-5.18,1.25-.43,1.62-1.11,1.78-1.44.17-.34.14-4,.44-5.18.3-1.18,3.3-4.47,4.44-6.15,1.14-1.68.7-3.5.7-3.5l-2.08,1.01s-1.81-2.65-1.38-2.65c.14.57,1.68,1.75,1.68,1.75,0,0,.84-.54,2.08-1.21-.24-.44-.37-1.01-.34-1.35.03-.33,2.05-1.14,2.05-1.14,0,0,.03.37.14.95.1.57,1.35,1.58,1.64,1.88.3.3,1.08,2.52,1.95,3.36-.14-2.29.4-5.12,1.04-7.1,1.14.3,2.96,3.97,3.16,5.18.2,1.21-.24,3.23-.24,3.63s.67.81.91.81c2.15-7.19.81-13.21-1.14-18.73ZM48.13,22c-.07.36-.44,1.02-.75,1.67-.29.6-.06,1.34-.43,1.54s-.92-.3-1.58-.6c-.77-.35-1.59-.77-2.08-.91-.91-.26-1.05.1-1.05.1,0,0-.5.51-.96.77-.34-.54-2.18-.72-2.76-.97s-2.44-2.26-3.31-2.28c.63-.31,1.47-.73,1.56-1.11.16-.66.44-1.73,1.14-2.2.15.21.39.52.61.61.08.03,2.04,1.19,2.34,1.46s.82-.54.52-1.02c-.14-.21-.28-.39-.39-.5-.23-.21-1.01-.64-1.53-.91.74,0,1.58.25,2.2,1.03,1.07,1.36,2.13,2.48,2.13,2.48,0,0,.63.71,1.09.74s1.89-.72,2.85-1.07c.23.16.39.38.43.56.03.16.02.36-.03.6Z"/>
        </g>
      </g>
      <g>
        <path class="cls-3" d="M84.38,24.42c-.89,0-1.71-.05-2.36-.26v6.27h-2.23c-1.31,0-2.76-.92-2.76-3.1v-14.51c1.36-.32,3.67-.76,5.41-.76h2.02c3.75,0,6.67,2.1,6.67,5.88s-2.99,6.48-6.75,6.48ZM84.01,15.99h-1c-.24,0-.76.08-1,.13v4.04c.55.18,1.18.24,1.89.24,1.58,0,2.23-.74,2.23-2.05,0-1.89-.84-2.36-2.12-2.36Z"/>
        <path class="cls-3" d="M102.54,30.64h-2.1c-4.59,0-6.56-2.31-6.56-6.88v-11.44h2.1c1.97,0,2.89,1.02,2.89,3.07v8.03c0,2.36.63,3.07,2.89,3.07h.79c1.44,0,3.1-.24,3.83-.55h.13v1.71c0,1.84-1.1,2.99-3.96,2.99Z"/>
        <path class="cls-3" d="M122.76,30.43c-1.81,0-2.76-.53-3.07-2.15-.13-.66-.29-1.36-.5-2.13h-6.25c-.39,1.31-.71,3.15-.92,4.28h-2.02c-1.6,0-2.31-.89-2.31-2.23,0-2.62,3.44-12.6,6.59-15.88h1.94c1.76,0,2.91.89,3.52,1.89,1.73,2.89,4.46,10.05,5.28,16.22h-2.26ZM116.12,16.83c-.79,1.5-1.58,3.62-2.1,5.41h4.15c-.53-1.78-1.31-3.96-2.05-5.41Z"/>
        <path class="cls-3" d="M141.55,30.43c-2.05,0-3.73-.89-5.35-3.83l-3.07-5.56c-.5-.68-.84-1.31-.89-1.5v10.89h-2.05c-1.37,0-2.81-.95-2.81-2.78v-15.33h2.42c2.65,0,4.41,1.29,5.64,3.73l3.36,6.56v-10.29h2.2c1.18,0,2.52.87,2.52,2.34v15.77h-1.97Z"/>
        <path class="cls-3" d="M156.35,30.66h-2.05c-4.75,0-7.38-2.42-7.38-7.43v-3.04c0-1.65.11-3.49.32-4.88.34-2.31,1.73-2.99,3.49-2.99h9.87v1.18c0,1.73-.92,2.89-3.02,2.89h-5.51c-.11.89-.18,2.2-.18,3.07h7.01v1.81c0,1.31-.97,2.05-2.73,2.05h-4.28v.66c0,1.94.63,2.62,3.15,2.62h1.31c1.5,0,2.75-.13,4.22-.5v1.92c0,1.65-1.02,2.65-4.22,2.65Z"/>
        <path class="cls-3" d="M174.78,16.49h-2.57v13.94h-2.18c-1.5,0-2.81-.68-2.81-2.6v-11.34h-5.17v-1.73c0-1.1.97-2.42,2.81-2.42h12.7v1.73c0,1.13-1.26,2.41-2.78,2.41Z"/>
        <path class="cls-3" d="M196.04,30.66h-2.05c-4.75,0-7.38-2.42-7.38-7.43v-3.04c0-1.65.1-3.49.31-4.88.34-2.31,1.73-2.99,3.49-2.99h9.87v1.18c0,1.73-.92,2.89-3.02,2.89h-5.51c-.1.89-.18,2.2-.18,3.07h7.01v1.81c0,1.31-.97,2.05-2.73,2.05h-4.28v.66c0,1.94.63,2.62,3.15,2.62h1.31c1.5,0,2.76-.13,4.23-.5v1.92c0,1.65-1.02,2.65-4.23,2.65Z"/>
        <path class="cls-3" d="M216.93,30.43c-1.81,0-2.75-.53-3.07-2.15-.13-.66-.29-1.36-.5-2.13h-6.25c-.39,1.31-.71,3.15-.92,4.28h-2.02c-1.6,0-2.31-.89-2.31-2.23,0-2.62,3.44-12.6,6.59-15.88h1.94c1.76,0,2.91.89,3.52,1.89,1.73,2.89,4.46,10.05,5.28,16.22h-2.26ZM210.29,16.83c-.79,1.5-1.57,3.62-2.1,5.41h4.15c-.52-1.78-1.31-3.96-2.05-5.41Z"/>
        <path class="cls-3" d="M234.31,30.56c-1.68,0-2.73-.73-3.25-1.92l-1.34-2.94c-.71-1.55-1.21-1.86-2.39-1.99l-.79-.08v6.8h-1.92c-1.94,0-3.07-1.18-3.07-2.86v-14.72c1.26-.45,4.04-.79,5.43-.79h2.02c3.88,0,6.64,2.12,6.64,5.41,0,2.41-1.57,4.46-3.31,4.86.87.39,1.31,1.05,1.99,2.49l1.39,2.94c.52,1.08,1,1.89,1.26,2.2v.13c-.6.31-1.6.47-2.68.47ZM227.54,15.99c-.21,0-.63.05-1,.1v3.99c.6.08,1.23.08,1.99.08,1.42,0,2.13-1.08,2.13-2.1,0-1.31-.66-2.07-2.1-2.07h-1.02Z"/>
        <path class="cls-3" d="M250.64,16.49h-2.57v13.94h-2.18c-1.5,0-2.81-.68-2.81-2.6v-11.34h-5.17v-1.73c0-1.1.97-2.42,2.81-2.42h12.7v1.73c0,1.13-1.26,2.41-2.78,2.41Z"/>
        <path class="cls-3" d="M269.64,30.43c-1.36,0-2.83-.97-2.83-2.81v-4.59h-5.88v7.4h-2.21c-1.36,0-2.81-.97-2.81-2.81v-15.3h2.57c1.31,0,2.41.97,2.41,2.34v4.38h5.91v-6.72h2.44c1.18,0,2.55.87,2.55,2.34v15.77h-2.15Z"/>
        <path class="cls-3" d="M91.21,55.43c-2.05,0-3.73-.89-5.35-3.83l-3.07-5.56c-.5-.68-.84-1.31-.89-1.5v10.89h-2.05c-1.36,0-2.81-.95-2.81-2.78v-15.33h2.41c2.65,0,4.41,1.29,5.64,3.73l3.36,6.56v-10.29h2.21c1.18,0,2.52.87,2.52,2.34v15.77h-1.97Z"/>
        <path class="cls-3" d="M104.25,55.85c-4.93,0-8.71-3.57-8.71-9.24s3.44-9.71,9.26-9.71c4.44,0,8.69,3.31,8.69,9.21s-3.36,9.74-9.24,9.74ZM104.3,40.94c-2.47,0-3.78,2.13-3.78,5.17,0,3.83,1.47,5.67,4.2,5.67,2.26,0,3.78-1.89,3.78-5.22,0-3.96-1.42-5.62-4.2-5.62Z"/>
        <path class="cls-3" d="M134.46,55.64h-1.36c-.58,0-1.52-.18-2.23-1.36-1.1-1.81-2.31-4.8-3.07-7.74-.68,2.76-2.36,6.88-3.88,9.11h-1.36c-.55,0-1.58-.18-2.28-1.36-2.94-4.88-4.83-10.37-5.72-16.96h2.89c1.47,0,2.57.81,2.86,2.42.42,2.49,1.08,5.04,2.34,8.16,1.29-3.1,2.47-7.17,2.96-9.95h1.73c1.76,0,3.07.76,3.52,2.81.53,2.44,1.1,4.25,2.34,7.14,1.26-3.18,2.26-6.56,2.83-10.58h2.52c1.29,0,2.23.87,2.23,2.23,0,.26-.03.52-.08.81-.97,4.33-3.6,11.21-6.22,15.27Z"/>
      </g>
    </g>
  </g>
</svg>